<?xml version="1.0" encoding="UTF-8"?>
<svg version="1.1" xmlns="http://www.w3.org/2000/svg" width="723" height="731">
<path d="M0 0 C4.04418576 9.64866069 8.04446365 19.31468193 12 29 C12.66346436 30.62397705 12.66346436 30.62397705 13.34033203 32.28076172 C26.82822189 65.58956499 37.10941704 99.9634107 45 135 C45.26748047 136.1864209 45.53496094 137.3728418 45.81054688 138.59521484 C52.32940752 168.4492491 57.45464545 201.1949902 57.0625 231.8125 C57.05798828 232.51697266 57.05347656 233.22144531 57.04882812 233.94726562 C57.03737041 235.63155009 57.01945815 237.31578897 57 239 C55.89265503 239.09704224 55.89265503 239.09704224 54.76293945 239.19604492 C14.6555843 242.81786251 -18.51511402 252.58451403 -48 281 C-48.67417969 281.63679688 -49.34835937 282.27359375 -50.04296875 282.9296875 C-56.31772785 289.3672647 -60.20816351 297.15752314 -64.38743591 305.02334595 C-66.44106553 308.81416888 -68.55609229 312.56882857 -70.67407227 316.32397461 C-71.09076424 317.06371269 -71.50745621 317.80345078 -71.93677521 318.56560516 C-72.95739653 320.37732572 -73.97863578 322.18869815 -75 324 C-88.84162535 321.74101917 -102.68299947 319.4805043 -116.52410412 317.21833515 C-122.95435527 316.16742821 -129.38467931 315.11697199 -135.81518555 314.06762695 C-191.27941953 305.01620952 -191.27941953 305.01620952 -214 301 C-213.85852047 298.94528682 -213.71223297 296.89090439 -213.56396484 294.83666992 C-213.48302582 293.69260178 -213.40208679 292.54853363 -213.31869507 291.36979675 C-212.86287103 286.55003477 -211.86579698 281.9842597 -210.625 277.3125 C-210.36807373 276.3433667 -210.11114746 275.3742334 -209.84643555 274.37573242 C-199.86084577 238.73158024 -179.10453192 204.38548581 -154.0703125 177.2578125 C-152.21571134 175.23524746 -150.44964839 173.16516016 -148.6875 171.0625 C-140.83629044 162.06896664 -131.34783166 154.36735885 -122 147 C-120.60007813 145.89011719 -120.60007813 145.89011719 -119.171875 144.7578125 C-111.48034388 138.81435663 -103.45144242 133.76625381 -95 129 C-94.1941748 128.54318848 -93.38834961 128.08637695 -92.55810547 127.61572266 C-90.00752354 126.1822052 -87.44431367 124.774629 -84.875 123.375 C-84.06925537 122.92455322 -83.26351074 122.47410645 -82.43334961 122.01000977 C-79.230273 120.29992407 -76.77918128 119.05732396 -73.1328125 118.7890625 C-67.13848896 122.19243301 -65.80087115 133.99522582 -63.98339844 140.27832031 C-63.37781915 142.36528458 -62.75963405 144.44823541 -62.140625 146.53125 C-60.14662387 153.33449188 -58.45715447 159.89045984 -58 167 C-58.76441406 167.50748779 -59.52882812 168.01497559 -60.31640625 168.5378418 C-96.32487279 192.51369576 -127.44823947 217.78502015 -144 259 C-143.35385742 259.04825928 -142.70771484 259.09651855 -142.04199219 259.14624023 C-133.59304418 259.83829654 -125.31454482 261.19231364 -116.96484375 262.62695312 C-113.9807931 263.1242949 -110.99542767 263.57721387 -108 264 C-106.92335083 264.17607788 -106.92335083 264.17607788 -105.82495117 264.35571289 C-103.7927538 264.64391995 -103.7927538 264.64391995 -101 264 C-99.18769278 261.70525723 -98.07006188 259.88914343 -96.8125 257.3125 C-79.83193437 226.09184439 -42.9480694 208.09847316 -10.90332031 196.54394531 C-9 196 -9 196 -6 196 C-10.09792916 153.61204521 -18.2393184 101.08888751 -38 63 C-76.71361983 64.24882645 -123.16955042 97.87630905 -152.27832031 120.65917969 C-153.96185641 121.9702943 -155.66073045 123.25797158 -157.3671875 124.5390625 C-173.27409867 136.52006291 -186.93357647 149.13806987 -199 165 C-199.55139648 165.71768555 -200.10279297 166.43537109 -200.67089844 167.17480469 C-225.53897844 199.63404535 -241.06552068 235.04540539 -250.99462891 274.56567383 C-251.17362732 275.27217575 -251.35262573 275.97867767 -251.53704834 276.70658875 C-252.02242047 278.62994951 -252.49954294 280.55538681 -252.97607422 282.48095703 C-254.05189289 286.17834622 -255.41521328 289.49640315 -257 293 C-268.29972045 292.50386416 -279.21537581 290.50101902 -290.3125 288.4375 C-292.13205032 288.10421041 -293.95171119 287.77152375 -295.77148438 287.43945312 C-300.18229313 286.63323802 -304.59153159 285.81891153 -309 285 C-308.53082686 276.91010192 -307.40359113 269.29416944 -305.4375 261.4375 C-305.17501465 260.37176758 -304.9125293 259.30603516 -304.64208984 258.20800781 C-291.38739985 205.38926058 -269.66750971 155.72847199 -232.26171875 115.4453125 C-230.3095112 113.3346356 -228.42693722 111.18772443 -226.5625 109 C-217.47713191 98.56468335 -207.24906439 89.30646896 -196.25 80.9375 C-195.52683594 80.38658691 -194.80367188 79.83567383 -194.05859375 79.26806641 C-185.21911301 72.5876326 -176.15126413 66.24399659 -167 60 C-166.28376465 59.50757813 -165.5675293 59.01515625 -164.82958984 58.5078125 C-121.81661628 29.09445443 -52.94153329 -1.10294861 0 0 Z " fill="#8BD89B" transform="translate(312,0)"/>
<path d="M0 0 C16.07451356 0.64009257 32.10441739 1.64344938 48.1484375 2.8125 C50.58646268 2.98823093 53.02450212 3.16376411 55.46255493 3.33911133 C60.52334901 3.70372294 65.58399353 4.0703245 70.64453125 4.43847656 C77.11777537 4.90929149 83.59133636 5.37557637 90.06500816 5.84046936 C95.07859762 6.20090884 100.09203499 6.56342787 105.10542679 6.92660522 C107.49352511 7.09940803 109.88166506 7.27163655 112.26984787 7.44326782 C115.5972076 7.68276489 118.92435733 7.92499615 122.25146484 8.16796875 C123.22607162 8.23760834 124.20067841 8.30724792 125.20481873 8.3789978 C130.49743639 8.7687261 135.740229 9.29200306 141 10 C143.32891937 62.87509534 112.24121959 118.74279533 77.84472656 156.98535156 C61.58758916 174.73997013 43.70679967 189.67592463 23 202 C22.29875 202.42667969 21.5975 202.85335937 20.875 203.29296875 C18.45883416 204.20406462 17.3965983 203.90105795 15 203 C11.44044075 196.9261489 9.03375199 190.30516224 6.5 183.75 C6.10562744 182.73454102 5.71125488 181.71908203 5.30493164 180.67285156 C-2 161.74099219 -2 161.74099219 -2 157 C0.02173226 155.20559895 2.02166525 153.60331698 4.1875 152 C5.48198801 151.01240487 6.77492222 150.02277023 8.06640625 149.03125 C9.05471436 148.27521484 9.05471436 148.27521484 10.06298828 147.50390625 C15.19401374 143.52015066 20.10047022 139.26271279 25 135 C25.51304687 134.55688477 26.02609375 134.11376953 26.5546875 133.65722656 C48.96502086 114.19038242 66.92327689 87.68341865 75 59 C73.8039917 58.91435791 72.6079834 58.82871582 71.37573242 58.74047852 C66.94185024 58.42195647 62.50835154 58.09834733 58.07495117 57.77319336 C56.15545582 57.63313041 54.23585902 57.49445051 52.31616211 57.35717773 C49.55815287 57.15971881 46.8005457 56.95730224 44.04296875 56.75390625 C42.75376778 56.66321617 42.75376778 56.66321617 41.43852234 56.57069397 C40.63791885 56.51070724 39.83731537 56.45072052 39.01245117 56.38891602 C38.3085173 56.33784195 37.60458344 56.28676788 36.87931824 56.23414612 C35 56 35 56 32 55 C31.74476563 55.84046875 31.48953125 56.6809375 31.2265625 57.546875 C22.90169988 80.98374938 3.37218543 99.59989781 -17 113 C-17.68255859 113.45181641 -18.36511719 113.90363281 -19.06835938 114.36914062 C-30.83696013 122.06772209 -43.20217062 128.20615663 -56 134 C-48.97447432 175.31795175 -33.81259958 217.09061183 -16.5625 255.1875 C-16.25675049 255.88286865 -15.95100098 256.5782373 -15.63598633 257.29467773 C-14.03734747 260.70662777 -14.03734747 260.70662777 -11.203125 263.0625 C19.95289396 262.17864131 58.38401384 227.14706798 81 208 C82.04251137 207.13096145 83.08550528 206.26250152 84.12890625 205.39453125 C91.61655885 199.14350449 98.92791372 192.71920424 106 186 C106.62310059 185.41089844 107.24620117 184.82179688 107.88818359 184.21484375 C123.01410182 169.81695042 134.2438389 154.33839999 144.671875 136.29345703 C145.85039172 134.25834929 147.0456134 132.23470044 148.25 130.21484375 C163.98255774 103.45105899 173.35077563 73.7863137 178.48828125 43.28125 C178.68809097 42.10832901 178.68809097 42.10832901 178.89193726 40.91171265 C179.57462451 36.90321132 180.24581856 32.89334226 180.89575195 28.87939453 C181.08182259 27.7521698 181.08182259 27.7521698 181.27165222 26.60217285 C181.50656234 25.17895638 181.73649927 23.75490708 181.96064758 22.32995605 C182.53229976 18.90245853 183.21392546 16.00094852 185 13 C202.3705303 14.00675269 219.70467755 15.04596117 237 17 C237.2947532 26.97633626 236.51096607 36.34166103 234.875 46.1875 C234.76362701 46.87531555 234.65225403 47.5631311 234.5375061 48.27178955 C225.12814411 106.25330892 204.42562422 160.92254504 166 206 C165.08911364 207.09574764 164.1789992 208.1921373 163.26953125 209.2890625 C153.63741514 220.82049184 143.37283904 231.60187176 131.56640625 240.93359375 C129.01006574 242.99189532 126.60005243 245.15074435 124.1875 247.375 C118.06272617 252.93857812 111.58174241 257.99380983 105 263 C103.95585938 263.80179688 102.91171875 264.60359375 101.8359375 265.4296875 C65.48497783 292.40546049 1.88833581 329.73787081 -45 329 C-45.51046875 327.88367188 -46.0209375 326.76734375 -46.546875 325.6171875 C-50.60573399 316.84677912 -54.88609418 308.29787486 -59.625 299.875 C-91.50733761 242.53322288 -123.68607512 162.32774123 -123 96 C-122.3922876 95.90501221 -121.7845752 95.81002441 -121.15844727 95.7121582 C-81.47777168 89.41452814 -45.22000214 74.75968189 -19.80859375 42.19140625 C-12.06463842 30.53216254 -7.05800052 16.97175004 -1.70666504 4.10386658 C-1.38678871 3.33476928 -1.06691238 2.56567198 -0.73734283 1.7732687 C-0.4940197 1.18809003 -0.25069656 0.60291136 0 0 Z " fill="#6784B6" transform="translate(485,396)"/>
<path d="M0 0 C8.72243948 -0.40283236 16.77494096 0.78241342 25.3125 2.5 C26.31219818 2.69823868 26.31219818 2.69823868 27.33209229 2.90048218 C76.84633778 12.7604079 125.06521156 30.42226744 165 62 C165.81082031 62.63035156 166.62164063 63.26070312 167.45703125 63.91015625 C169.99804652 65.9093072 172.50305704 67.94606305 175 70 C175.49661133 70.40492676 175.99322266 70.80985352 176.50488281 71.22705078 C191.38450467 83.41741988 205.18677739 96.82039218 216.68603516 112.26708984 C218.5740128 114.75703137 220.54736657 117.17438432 222.51855469 119.59863281 C238.28429854 139.01413141 250.76793715 159.66981712 262 182 C262.64171143 183.26142822 262.64171143 183.26142822 263.29638672 184.54833984 C280.04669955 217.64366242 297.67714871 257.56330862 299 295 C229.26067658 331.04946229 142.74139747 364.64205031 63 363 C62.90501221 362.31188232 62.81002441 361.62376465 62.7121582 360.91479492 C59.88496107 340.74857395 56.33504399 321.66146548 48 303 C47.21496094 301.22689453 47.21496094 301.22689453 46.4140625 299.41796875 C40.55949006 286.95295184 32.25870127 277.04568149 22.8359375 267.14453125 C21 265 21 265 21 263 C20.40832031 262.73445313 19.81664062 262.46890625 19.20703125 262.1953125 C16.9431458 260.96920817 15.5110593 259.67759885 13.6875 257.875 C4.17709657 249.42711417 -8.76584765 244.57875043 -20.20581055 239.32495117 C-21.50772339 238.71937378 -21.50772339 238.71937378 -22.8359375 238.1015625 C-23.61501465 237.74400879 -24.3940918 237.38645508 -25.19677734 237.01806641 C-27 236 -27 236 -28 234 C-27.9055977 232.23059082 -27.73073763 230.46527524 -27.51956177 228.70597839 C-27.38775513 227.58295822 -27.25594849 226.45993805 -27.12014771 225.30288696 C-26.96851166 224.06493378 -26.81687561 222.82698059 -26.66064453 221.55151367 C-26.42918732 219.60265511 -26.42918732 219.60265511 -26.1930542 217.61442566 C-25.76874442 214.0433923 -25.33682107 210.47331632 -24.90346003 206.90337157 C-24.45135832 203.16925492 -24.00584667 199.43435204 -23.55953979 195.69953918 C-22.80858587 189.42346462 -22.05304627 183.14795594 -21.29443359 176.87280273 C-20.32130391 168.822997 -19.35563154 160.77231536 -18.39236641 152.72132397 C-17.56408308 145.79898243 -16.73240319 138.8770496 -15.90015936 131.95518327 C-15.63292665 129.73141863 -15.36614985 127.50759964 -15.09943008 125.28377342 C-14.60150428 121.13443446 -14.10004663 116.98552978 -13.59814453 112.83666992 C-13.45055695 111.60478943 -13.30296936 110.37290894 -13.15090942 109.10369873 C-13.01346313 107.97221909 -12.87601685 106.84073944 -12.73440552 105.67497253 C-12.61603899 104.69401706 -12.49767246 103.71306158 -12.37571907 102.70238018 C-12.01494363 100.10748286 -11.54240362 97.56249083 -11 95 C18.14086983 96.85122722 44.38809926 106.2944068 70 120 C70.73734375 120.3933252 71.4746875 120.78665039 72.234375 121.19189453 C93.05147437 132.36449463 112.59512538 145.57103696 129.3359375 162.33984375 C131.36481146 164.36574282 133.41532951 166.34904754 135.49609375 168.3203125 C151.26048971 183.42744115 170.32437641 204.77955788 177 226 C176.85107422 228.19213867 176.85107422 228.19213867 176 230 C174.46533203 231.08325195 174.46533203 231.08325195 172.3828125 231.92578125 C171.56844727 232.25529785 170.75408203 232.58481445 169.91503906 232.92431641 C164.60390928 234.88418557 159.26191824 236.73963958 153.88818359 238.51928711 C151.86938833 239.18936262 149.85460259 239.87063163 147.83984375 240.55273438 C146.53668463 240.9876578 145.23330644 241.42192552 143.9296875 241.85546875 C142.76679199 242.24371826 141.60389648 242.63196777 140.40576172 243.03198242 C136.91406602 244.02442496 133.61755774 244.69348826 130 245 C127.98828125 243.47265625 127.98828125 243.47265625 126.3125 241.0625 C125.64476562 240.14210937 124.97703125 239.22171875 124.2890625 238.2734375 C123.53367187 237.19320312 122.77828125 236.11296875 122 235 C120.08030129 232.38248178 118.13440507 229.78482155 116.1875 227.1875 C115.67558105 226.50155762 115.16366211 225.81561523 114.63623047 225.10888672 C93.44438578 196.8508801 67.26783567 175.38875708 34 163 C33.94593994 163.83225098 33.89187988 164.66450195 33.83618164 165.52197266 C33.22749468 174.49714602 32.38945063 183.42939697 31.4375 192.375 C31.29731391 193.70831105 31.15733911 195.04164433 31.01757812 196.375 C30.68044718 199.58355661 30.34122821 202.79187701 30 206 C31.03898437 206.556875 32.07796875 207.11375 33.1484375 207.6875 C68.25796136 226.77142238 90.43194329 261.10150432 104 298 C146.60092569 293.34386868 196.87513653 279.67983843 235 260 C225.75355324 213.70310573 190.71077487 168.58447704 159.33203125 134.5546875 C157.35375371 132.38752919 155.45106925 130.18214794 153.5625 127.9375 C118.62794656 88.17328479 63.0890444 67.40057813 12.78076172 57.14208984 C6.33337714 55.80874695 0.19584254 54.23261703 -6 52 C-4.41194375 34.61496313 -2.21662947 17.31358621 0 0 Z " fill="#39A7CB" transform="translate(424,9)"/>
<path d="M0 0 C0.74903245 2.8340942 1.31616742 5.55731368 1.8125 8.4375 C7.14932338 36.20733922 18.80445777 61.20598256 38 82 C38.68835938 82.75925781 39.37671875 83.51851563 40.0859375 84.30078125 C56.1334569 101.19468881 76.11798895 108.42020556 97.63012695 116.07958984 C100 117 100 117 101 118 C101.2656432 122.16741046 101.16491014 126.35667548 101.15625 130.53125 C101.15567093 131.21280655 101.15509186 131.8943631 101.15449524 132.59657288 C101.11648748 155.97864513 100.28979183 179.35558948 99.60931396 202.7255249 C99.42501734 209.08905777 99.24596136 215.45273814 99.06640625 221.81640625 C98.71593844 234.21108347 98.35985631 246.60559204 98 259 C94.69273011 259.03131133 91.38549925 259.04988881 88.078125 259.06640625 C87.15402832 259.07530884 86.22993164 259.08421143 85.27783203 259.09338379 C58.39515685 259.19369228 32.35090049 249.56108345 8 239 C7.14712402 238.63148926 6.29424805 238.26297852 5.41552734 237.88330078 C-18.58210279 227.36899923 -39.39607377 213.23272257 -59 196 C-59.92167969 195.19175781 -60.84335938 194.38351562 -61.79296875 193.55078125 C-71.04842507 185.32849215 -79.33652738 176.73017126 -87 167 C-87.42490723 166.46793945 -87.84981445 165.93587891 -88.28759766 165.38769531 C-100.55965954 150.01032716 -100.55965954 150.01032716 -102 145 C-101.09241037 142.42684782 -100.35156497 141.23262273 -98.05883789 139.71557617 C-97.26727295 139.34924072 -96.47570801 138.98290527 -95.66015625 138.60546875 C-94.76312988 138.18442871 -93.86610352 137.76338867 -92.94189453 137.32958984 C-91.97106934 136.8908252 -91.00024414 136.45206055 -90 136 C-89.00468262 135.53932129 -88.00936523 135.07864258 -86.98388672 134.60400391 C-83.81229305 133.1488021 -80.6272611 131.72739101 -77.4375 130.3125 C-76.36564453 129.82716797 -75.29378906 129.34183594 -74.18945312 128.84179688 C-60.47796772 122.76178041 -60.47796772 122.76178041 -56 123 C-53.34332007 124.47221653 -51.71815537 126.49574681 -49.875 128.875 C-49.40191406 129.43703125 -48.92882812 129.9990625 -48.44140625 130.578125 C-47.4586203 131.74899128 -46.48772624 132.92992341 -45.52783203 134.11962891 C-20.99617004 164.31184058 9.80953018 184.84285905 47 196 C46.67 181.48 46.34 166.96 46 152 C40.06 149.36 34.12 146.72 28 144 C13.63032672 134.70926297 1.36562021 123.63794266 -9 110 C-9.71285156 109.1028125 -10.42570313 108.205625 -11.16015625 107.28125 C-20.60136839 95.15919985 -28.44877836 81.88336348 -35 68 C-44.66440336 69.31314072 -53.68367518 72.31302991 -62.875 75.4375 C-64.0581781 75.83657562 -64.0581781 75.83657562 -65.26525879 76.24371338 C-98.39563481 87.42686072 -131.415581 99.89479659 -162 117 C-160.89336176 123.02724159 -159.28168278 128.20232274 -156.4375 133.625 C-156.08526367 134.30957275 -155.73302734 134.99414551 -155.37011719 135.69946289 C-140.87603546 163.4840429 -121.05391684 187.94435252 -100 211 C-99.14792969 211.94488281 -98.29585937 212.88976562 -97.41796875 213.86328125 C-76.59444106 236.88608023 -54.51116241 254.43831723 -27 269 C-26.22205078 269.41652832 -25.44410156 269.83305664 -24.64257812 270.26220703 C-10.04655853 278.0397226 5.20753459 284.06569434 21.0625 288.75 C21.97 289.01949463 22.8775 289.28898926 23.8125 289.56665039 C39.94645989 294.1587759 56.23542499 296.74419286 72.875 298.625 C75.54966658 298.92954364 78.22388354 299.23679545 80.89724731 299.55258179 C82.53813374 299.74630537 84.17977994 299.93373885 85.82223511 300.11367798 C89.84121459 300.58696616 93.33029954 301.26594567 97 303 C96.88035592 308.316275 96.75604236 313.63241454 96.62768555 318.94848633 C96.58478312 320.75119172 96.54308406 322.55392621 96.50268555 324.35668945 C96.27220663 334.60304228 95.95386487 344.79071995 95 355 C17.05851066 358.67263562 -61.46348559 326.07474497 -119 274.75 C-126.04222239 268.18618946 -132.56276054 261.12517666 -139.09423828 254.05859375 C-140.84540561 252.16699204 -142.60597384 250.28482306 -144.37109375 248.40625 C-181.22210145 209.07433253 -223.38056908 145.34376693 -229.33544922 90.93505859 C-229 88 -229 88 -227.16186523 86.23999023 C-226.30278564 85.76762939 -225.44370605 85.29526855 -224.55859375 84.80859375 C-223.59518066 84.26356201 -222.63176758 83.71853027 -221.63916016 83.15698242 C-220.5826123 82.58955322 -219.52606445 82.02212402 -218.4375 81.4375 C-217.3448584 80.82817627 -216.2522168 80.21885254 -215.12646484 79.59106445 C-212.85419926 78.32492886 -210.5770932 77.06744412 -208.29541016 75.81835938 C-205.33212294 74.18326061 -202.40136233 72.50619793 -199.48046875 70.796875 C-141.4478503 36.9613399 -76.400625 11.27937816 -10 0 C-8.73542969 -0.2165625 -7.47085938 -0.433125 -6.16796875 -0.65625 C-3 -1 -3 -1 0 0 Z " fill="#39A7CB" transform="translate(229,376)"/>
<path d="M0 0 C1.11955078 0.94746094 1.11955078 0.94746094 2.26171875 1.9140625 C3.14923828 2.58308594 3.14923828 2.58308594 4.0546875 3.265625 C21.65582413 16.89500871 31.38706087 40.28309639 34.63671875 61.7265625 C37.5178838 87.19305183 30.92495781 112.14485037 15.2421875 132.46875 C14.58863281 133.27570313 13.93507813 134.08265625 13.26171875 134.9140625 C12.65972656 135.67976562 12.05773437 136.44546875 11.4375 137.234375 C-3.31611163 154.98819696 -25.74799003 165.73333951 -48.4140625 168.6328125 C-74.21539299 170.81576878 -100.09422522 164.94822328 -120.25 148.0546875 C-139.58127377 131.09198013 -153.19234242 108.46610452 -154.90673828 82.34765625 C-156.13092886 53.54076172 -147.93506273 29.23996931 -128.6875 7.609375 C-95.37217861 -27.59401762 -37.09383464 -31.09593045 0 0 Z " fill="#FCC809" transform="translate(416.73828125,294.0859375)"/>
</svg>
